<svg xmlns="http://www.w3.org/2000/svg" xmlns:xlink="http://www.w3.org/1999/xlink" contentStyleType="text/css" height="1439px" preserveAspectRatio="none" style="width:1110px;height:1439px;background:#FFFFFF;" version="1.1" viewBox="0 0 1110 1439" width="1110px" zoomAndPan="magnify"><defs/><g><line style="stroke:#181818;stroke-width:0.5;stroke-dasharray:5.0,5.0;" x1="47" x2="47" y1="36.4883" y2="1404.2891"/><line style="stroke:#181818;stroke-width:0.5;stroke-dasharray:5.0,5.0;" x1="176" x2="176" y1="36.4883" y2="1404.2891"/><line style="stroke:#181818;stroke-width:0.5;stroke-dasharray:5.0,5.0;" x1="519.5" x2="519.5" y1="36.4883" y2="1404.2891"/><line style="stroke:#181818;stroke-width:0.5;stroke-dasharray:5.0,5.0;" x1="830.5" x2="830.5" y1="36.4883" y2="1404.2891"/><rect fill="#E2E2F0" height="30.4883" rx="2.5" ry="2.5" style="stroke:#181818;stroke-width:0.5;" width="85" x="5" y="5"/><text fill="#000000" font-family="sans-serif" font-size="14" lengthAdjust="spacing" textLength="71" x="12" y="25.5352">Consumer</text><rect fill="#E2E2F0" height="30.4883" rx="2.5" ry="2.5" style="stroke:#181818;stroke-width:0.5;" width="85" x="5" y="1403.2891"/><text fill="#000000" font-family="sans-serif" font-size="14" lengthAdjust="spacing" textLength="71" x="12" y="1423.8242">Consumer</text><rect fill="#E2E2F0" height="30.4883" rx="2.5" ry="2.5" style="stroke:#181818;stroke-width:0.5;" width="153" x="100" y="5"/><text fill="#000000" font-family="sans-serif" font-size="14" lengthAdjust="spacing" textLength="139" x="107" y="25.5352">Association Register</text><rect fill="#E2E2F0" height="30.4883" rx="2.5" ry="2.5" style="stroke:#181818;stroke-width:0.5;" width="153" x="100" y="1403.2891"/><text fill="#000000" font-family="sans-serif" font-size="14" lengthAdjust="spacing" textLength="139" x="107" y="1423.8242">Association Register</text><rect fill="#E2E2F0" height="30.4883" rx="2.5" ry="2.5" style="stroke:#181818;stroke-width:0.5;" width="226" x="406.5" y="5"/><text fill="#000000" font-family="sans-serif" font-size="14" lengthAdjust="spacing" textLength="212" x="413.5" y="25.5352">Authorization Register (owner)</text><rect fill="#E2E2F0" height="30.4883" rx="2.5" ry="2.5" style="stroke:#181818;stroke-width:0.5;" width="226" x="406.5" y="1403.2891"/><text fill="#000000" font-family="sans-serif" font-size="14" lengthAdjust="spacing" textLength="212" x="413.5" y="1423.8242">Authorization Register (owner)</text><rect fill="#E2E2F0" height="30.4883" rx="2.5" ry="2.5" style="stroke:#181818;stroke-width:0.5;" width="134" x="763.5" y="5"/><text fill="#000000" font-family="sans-serif" font-size="14" lengthAdjust="spacing" textLength="120" x="770.5" y="25.5352">Resource (owner)</text><rect fill="#E2E2F0" height="30.4883" rx="2.5" ry="2.5" style="stroke:#181818;stroke-width:0.5;" width="134" x="763.5" y="1403.2891"/><text fill="#000000" font-family="sans-serif" font-size="14" lengthAdjust="spacing" textLength="120" x="770.5" y="1423.8242">Resource (owner)</text><polygon fill="#181818" points="818.5,63.7988,828.5,67.7988,818.5,71.7988,822.5,67.7988" style="stroke:#181818;stroke-width:1.0;"/><line style="stroke:#181818;stroke-width:1.0;" x1="47.5" x2="824.5" y1="67.7988" y2="67.7988"/><text fill="#000000" font-family="sans-serif" font-size="13" lengthAdjust="spacing" textLength="210" x="54.5" y="63.0566">/token (get authentication token)</text><line style="stroke:#181818;stroke-width:1.0;" x1="830.5" x2="872.5" y1="97.1094" y2="97.1094"/><line style="stroke:#181818;stroke-width:1.0;" x1="872.5" x2="872.5" y1="97.1094" y2="110.1094"/><line style="stroke:#181818;stroke-width:1.0;" x1="831.5" x2="872.5" y1="110.1094" y2="110.1094"/><polygon fill="#181818" points="841.5,106.1094,831.5,110.1094,841.5,114.1094,837.5,110.1094" style="stroke:#181818;stroke-width:1.0;"/><text fill="#000000" font-family="sans-serif" font-size="13" lengthAdjust="spacing" textLength="138" x="837.5" y="92.3672">check client assertion</text><polygon fill="#181818" points="187.5,135.4199,177.5,139.4199,187.5,143.4199,183.5,139.4199" style="stroke:#181818;stroke-width:1.0;"/><line style="stroke:#181818;stroke-width:1.0;" x1="181.5" x2="829.5" y1="139.4199" y2="139.4199"/><text fill="#000000" font-family="sans-serif" font-size="13" lengthAdjust="spacing" textLength="210" x="193.5" y="134.6777">/token (get authentication token)</text><line style="stroke:#181818;stroke-width:1.0;" x1="176.5" x2="218.5" y1="168.7305" y2="168.7305"/><line style="stroke:#181818;stroke-width:1.0;" x1="218.5" x2="218.5" y1="168.7305" y2="181.7305"/><line style="stroke:#181818;stroke-width:1.0;" x1="177.5" x2="218.5" y1="181.7305" y2="181.7305"/><polygon fill="#181818" points="187.5,177.7305,177.5,181.7305,187.5,185.7305,183.5,181.7305" style="stroke:#181818;stroke-width:1.0;"/><text fill="#000000" font-family="sans-serif" font-size="13" lengthAdjust="spacing" textLength="138" x="183.5" y="163.9883">check client assertion</text><line style="stroke:#181818;stroke-width:1.0;" x1="176.5" x2="218.5" y1="211.041" y2="211.041"/><line style="stroke:#181818;stroke-width:1.0;" x1="218.5" x2="218.5" y1="211.041" y2="224.041"/><line style="stroke:#181818;stroke-width:1.0;" x1="177.5" x2="218.5" y1="224.041" y2="224.041"/><polygon fill="#181818" points="187.5,220.041,177.5,224.041,187.5,228.041,183.5,224.041" style="stroke:#181818;stroke-width:1.0;"/><text fill="#000000" font-family="sans-serif" font-size="13" lengthAdjust="spacing" textLength="174" x="183.5" y="206.2988">check owner still compliant</text><polygon fill="#181818" points="818.5,249.3516,828.5,253.3516,818.5,257.3516,822.5,253.3516" style="stroke:#181818;stroke-width:1.0;"/><line style="stroke:#181818;stroke-width:1.0;" x1="176.5" x2="824.5" y1="253.3516" y2="253.3516"/><text fill="#000000" font-family="sans-serif" font-size="13" lengthAdjust="spacing" textLength="62" x="183.5" y="248.6094">OK: token</text><polygon fill="#181818" points="187.5,278.6621,177.5,282.6621,187.5,286.6621,183.5,282.6621" style="stroke:#181818;stroke-width:1.0;"/><line style="stroke:#181818;stroke-width:1.0;" x1="181.5" x2="829.5" y1="282.6621" y2="282.6621"/><text fill="#000000" font-family="sans-serif" font-size="13" lengthAdjust="spacing" textLength="322" x="193.5" y="277.9199">/party (with token get consumer party information)</text><line style="stroke:#181818;stroke-width:1.0;" x1="176.5" x2="218.5" y1="311.9727" y2="311.9727"/><line style="stroke:#181818;stroke-width:1.0;" x1="218.5" x2="218.5" y1="311.9727" y2="324.9727"/><line style="stroke:#181818;stroke-width:1.0;" x1="177.5" x2="218.5" y1="324.9727" y2="324.9727"/><polygon fill="#181818" points="187.5,320.9727,177.5,324.9727,187.5,328.9727,183.5,324.9727" style="stroke:#181818;stroke-width:1.0;"/><text fill="#000000" font-family="sans-serif" font-size="13" lengthAdjust="spacing" textLength="77" x="183.5" y="307.2305">check token</text><polygon fill="#181818" points="818.5,350.2832,828.5,354.2832,818.5,358.2832,822.5,354.2832" style="stroke:#181818;stroke-width:1.0;"/><line style="stroke:#181818;stroke-width:1.0;" x1="176.5" x2="824.5" y1="354.2832" y2="354.2832"/><text fill="#000000" font-family="sans-serif" font-size="13" lengthAdjust="spacing" textLength="87" x="183.5" y="349.541">OK: party info</text><line style="stroke:#181818;stroke-width:1.0;" x1="830.5" x2="872.5" y1="383.5938" y2="383.5938"/><line style="stroke:#181818;stroke-width:1.0;" x1="872.5" x2="872.5" y1="383.5938" y2="396.5938"/><line style="stroke:#181818;stroke-width:1.0;" x1="831.5" x2="872.5" y1="396.5938" y2="396.5938"/><polygon fill="#181818" points="841.5,392.5938,831.5,396.5938,841.5,400.5938,837.5,396.5938" style="stroke:#181818;stroke-width:1.0;"/><text fill="#000000" font-family="sans-serif" font-size="13" lengthAdjust="spacing" textLength="266" x="837.5" y="378.8516">check consumer party info for compliance</text><polygon fill="#181818" points="58.5,421.9043,48.5,425.9043,58.5,429.9043,54.5,425.9043" style="stroke:#181818;stroke-width:1.0;"/><line style="stroke:#181818;stroke-width:1.0;" x1="52.5" x2="829.5" y1="425.9043" y2="425.9043"/><text fill="#000000" font-family="sans-serif" font-size="13" lengthAdjust="spacing" textLength="62" x="64.5" y="421.1621">OK: token</text><polygon fill="#181818" points="818.5,451.2148,828.5,455.2148,818.5,459.2148,822.5,455.2148" style="stroke:#181818;stroke-width:1.0;"/><line style="stroke:#181818;stroke-width:1.0;" x1="47.5" x2="824.5" y1="455.2148" y2="455.2148"/><text fill="#000000" font-family="sans-serif" font-size="13" lengthAdjust="spacing" textLength="392" x="54.5" y="450.4727">/some-resource (with token, but without delegation evidence)</text><line style="stroke:#181818;stroke-width:1.0;" x1="830.5" x2="872.5" y1="484.5254" y2="484.5254"/><line style="stroke:#181818;stroke-width:1.0;" x1="872.5" x2="872.5" y1="484.5254" y2="497.5254"/><line style="stroke:#181818;stroke-width:1.0;" x1="831.5" x2="872.5" y1="497.5254" y2="497.5254"/><polygon fill="#181818" points="841.5,493.5254,831.5,497.5254,841.5,501.5254,837.5,497.5254" style="stroke:#181818;stroke-width:1.0;"/><text fill="#000000" font-family="sans-serif" font-size="13" lengthAdjust="spacing" textLength="77" x="837.5" y="479.7832">check token</text><polygon fill="#181818" points="187.5,522.8359,177.5,526.8359,187.5,530.8359,183.5,526.8359" style="stroke:#181818;stroke-width:1.0;"/><line style="stroke:#181818;stroke-width:1.0;" x1="181.5" x2="829.5" y1="526.8359" y2="526.8359"/><text fill="#000000" font-family="sans-serif" font-size="13" lengthAdjust="spacing" textLength="210" x="193.5" y="522.0938">/token (get authentication token)</text><line style="stroke:#181818;stroke-width:1.0;" x1="176.5" x2="218.5" y1="556.1465" y2="556.1465"/><line style="stroke:#181818;stroke-width:1.0;" x1="218.5" x2="218.5" y1="556.1465" y2="569.1465"/><line style="stroke:#181818;stroke-width:1.0;" x1="177.5" x2="218.5" y1="569.1465" y2="569.1465"/><polygon fill="#181818" points="187.5,565.1465,177.5,569.1465,187.5,573.1465,183.5,569.1465" style="stroke:#181818;stroke-width:1.0;"/><text fill="#000000" font-family="sans-serif" font-size="13" lengthAdjust="spacing" textLength="138" x="183.5" y="551.4043">check client assertion</text><line style="stroke:#181818;stroke-width:1.0;" x1="176.5" x2="218.5" y1="598.457" y2="598.457"/><line style="stroke:#181818;stroke-width:1.0;" x1="218.5" x2="218.5" y1="598.457" y2="611.457"/><line style="stroke:#181818;stroke-width:1.0;" x1="177.5" x2="218.5" y1="611.457" y2="611.457"/><polygon fill="#181818" points="187.5,607.457,177.5,611.457,187.5,615.457,183.5,611.457" style="stroke:#181818;stroke-width:1.0;"/><text fill="#000000" font-family="sans-serif" font-size="13" lengthAdjust="spacing" textLength="195" x="183.5" y="593.7148">check ownerApi still compliant</text><polygon fill="#181818" points="818.5,636.7676,828.5,640.7676,818.5,644.7676,822.5,640.7676" style="stroke:#181818;stroke-width:1.0;"/><line style="stroke:#181818;stroke-width:1.0;" x1="176.5" x2="824.5" y1="640.7676" y2="640.7676"/><text fill="#000000" font-family="sans-serif" font-size="13" lengthAdjust="spacing" textLength="62" x="183.5" y="636.0254">OK: token</text><polygon fill="#181818" points="187.5,666.0781,177.5,670.0781,187.5,674.0781,183.5,670.0781" style="stroke:#181818;stroke-width:1.0;"/><line style="stroke:#181818;stroke-width:1.0;" x1="181.5" x2="829.5" y1="670.0781" y2="670.0781"/><text fill="#000000" font-family="sans-serif" font-size="13" lengthAdjust="spacing" textLength="312" x="193.5" y="665.3359">/party (with token get ownerAr party information)</text><line style="stroke:#181818;stroke-width:1.0;" x1="176.5" x2="218.5" y1="699.3887" y2="699.3887"/><line style="stroke:#181818;stroke-width:1.0;" x1="218.5" x2="218.5" y1="699.3887" y2="712.3887"/><line style="stroke:#181818;stroke-width:1.0;" x1="177.5" x2="218.5" y1="712.3887" y2="712.3887"/><polygon fill="#181818" points="187.5,708.3887,177.5,712.3887,187.5,716.3887,183.5,712.3887" style="stroke:#181818;stroke-width:1.0;"/><text fill="#000000" font-family="sans-serif" font-size="13" lengthAdjust="spacing" textLength="77" x="183.5" y="694.6465">check token</text><polygon fill="#181818" points="818.5,737.6992,828.5,741.6992,818.5,745.6992,822.5,741.6992" style="stroke:#181818;stroke-width:1.0;"/><line style="stroke:#181818;stroke-width:1.0;" x1="176.5" x2="824.5" y1="741.6992" y2="741.6992"/><text fill="#000000" font-family="sans-serif" font-size="13" lengthAdjust="spacing" textLength="87" x="183.5" y="736.957">OK: party info</text><line style="stroke:#181818;stroke-width:1.0;" x1="830.5" x2="872.5" y1="771.0098" y2="771.0098"/><line style="stroke:#181818;stroke-width:1.0;" x1="872.5" x2="872.5" y1="771.0098" y2="784.0098"/><line style="stroke:#181818;stroke-width:1.0;" x1="831.5" x2="872.5" y1="784.0098" y2="784.0098"/><polygon fill="#181818" points="841.5,780.0098,831.5,784.0098,841.5,788.0098,837.5,784.0098" style="stroke:#181818;stroke-width:1.0;"/><text fill="#000000" font-family="sans-serif" font-size="13" lengthAdjust="spacing" textLength="217" x="837.5" y="766.2676">extract Authorization Register URL</text><polygon fill="#181818" points="530.5,809.3203,520.5,813.3203,530.5,817.3203,526.5,813.3203" style="stroke:#181818;stroke-width:1.0;"/><line style="stroke:#181818;stroke-width:1.0;" x1="524.5" x2="829.5" y1="813.3203" y2="813.3203"/><text fill="#000000" font-family="sans-serif" font-size="13" lengthAdjust="spacing" textLength="210" x="536.5" y="808.5781">/token (get authentication token)</text><line style="stroke:#181818;stroke-width:1.0;" x1="519.5" x2="561.5" y1="842.6309" y2="842.6309"/><line style="stroke:#181818;stroke-width:1.0;" x1="561.5" x2="561.5" y1="842.6309" y2="855.6309"/><line style="stroke:#181818;stroke-width:1.0;" x1="520.5" x2="561.5" y1="855.6309" y2="855.6309"/><polygon fill="#181818" points="530.5,851.6309,520.5,855.6309,530.5,859.6309,526.5,855.6309" style="stroke:#181818;stroke-width:1.0;"/><text fill="#000000" font-family="sans-serif" font-size="13" lengthAdjust="spacing" textLength="138" x="526.5" y="837.8887">check client assertion</text><polygon fill="#181818" points="187.5,880.9414,177.5,884.9414,187.5,888.9414,183.5,884.9414" style="stroke:#181818;stroke-width:1.0;"/><line style="stroke:#181818;stroke-width:1.0;" x1="181.5" x2="518.5" y1="884.9414" y2="884.9414"/><text fill="#000000" font-family="sans-serif" font-size="13" lengthAdjust="spacing" textLength="210" x="193.5" y="880.1992">/token (get authentication token)</text><line style="stroke:#181818;stroke-width:1.0;" x1="176.5" x2="218.5" y1="914.252" y2="914.252"/><line style="stroke:#181818;stroke-width:1.0;" x1="218.5" x2="218.5" y1="914.252" y2="927.252"/><line style="stroke:#181818;stroke-width:1.0;" x1="177.5" x2="218.5" y1="927.252" y2="927.252"/><polygon fill="#181818" points="187.5,923.252,177.5,927.252,187.5,931.252,183.5,927.252" style="stroke:#181818;stroke-width:1.0;"/><text fill="#000000" font-family="sans-serif" font-size="13" lengthAdjust="spacing" textLength="138" x="183.5" y="909.5098">check client assertion</text><line style="stroke:#181818;stroke-width:1.0;" x1="176.5" x2="218.5" y1="956.5625" y2="956.5625"/><line style="stroke:#181818;stroke-width:1.0;" x1="218.5" x2="218.5" y1="956.5625" y2="969.5625"/><line style="stroke:#181818;stroke-width:1.0;" x1="177.5" x2="218.5" y1="969.5625" y2="969.5625"/><polygon fill="#181818" points="187.5,965.5625,177.5,969.5625,187.5,973.5625,183.5,969.5625" style="stroke:#181818;stroke-width:1.0;"/><text fill="#000000" font-family="sans-serif" font-size="13" lengthAdjust="spacing" textLength="153" x="183.5" y="951.8203">check AR still compliant</text><polygon fill="#181818" points="507.5,994.873,517.5,998.873,507.5,1002.873,511.5,998.873" style="stroke:#181818;stroke-width:1.0;"/><line style="stroke:#181818;stroke-width:1.0;" x1="176.5" x2="513.5" y1="998.873" y2="998.873"/><text fill="#000000" font-family="sans-serif" font-size="13" lengthAdjust="spacing" textLength="62" x="183.5" y="994.1309">OK: token</text><polygon fill="#181818" points="187.5,1024.1836,177.5,1028.1836,187.5,1032.1836,183.5,1028.1836" style="stroke:#181818;stroke-width:1.0;"/><line style="stroke:#181818;stroke-width:1.0;" x1="181.5" x2="518.5" y1="1028.1836" y2="1028.1836"/><text fill="#000000" font-family="sans-serif" font-size="13" lengthAdjust="spacing" textLength="319" x="193.5" y="1023.4414">/party (with token get ownerApi party information)</text><line style="stroke:#181818;stroke-width:1.0;" x1="176.5" x2="218.5" y1="1057.4941" y2="1057.4941"/><line style="stroke:#181818;stroke-width:1.0;" x1="218.5" x2="218.5" y1="1057.4941" y2="1070.4941"/><line style="stroke:#181818;stroke-width:1.0;" x1="177.5" x2="218.5" y1="1070.4941" y2="1070.4941"/><polygon fill="#181818" points="187.5,1066.4941,177.5,1070.4941,187.5,1074.4941,183.5,1070.4941" style="stroke:#181818;stroke-width:1.0;"/><text fill="#000000" font-family="sans-serif" font-size="13" lengthAdjust="spacing" textLength="77" x="183.5" y="1052.752">check token</text><polygon fill="#181818" points="507.5,1095.8047,517.5,1099.8047,507.5,1103.8047,511.5,1099.8047" style="stroke:#181818;stroke-width:1.0;"/><line style="stroke:#181818;stroke-width:1.0;" x1="176.5" x2="513.5" y1="1099.8047" y2="1099.8047"/><text fill="#000000" font-family="sans-serif" font-size="13" lengthAdjust="spacing" textLength="87" x="183.5" y="1095.0625">OK: party info</text><line style="stroke:#181818;stroke-width:1.0;" x1="519.5" x2="561.5" y1="1129.1152" y2="1129.1152"/><line style="stroke:#181818;stroke-width:1.0;" x1="561.5" x2="561.5" y1="1129.1152" y2="1142.1152"/><line style="stroke:#181818;stroke-width:1.0;" x1="520.5" x2="561.5" y1="1142.1152" y2="1142.1152"/><polygon fill="#181818" points="530.5,1138.1152,520.5,1142.1152,530.5,1146.1152,526.5,1142.1152" style="stroke:#181818;stroke-width:1.0;"/><text fill="#000000" font-family="sans-serif" font-size="13" lengthAdjust="spacing" textLength="263" x="526.5" y="1124.373">check ownerApi party info for compliance</text><polygon fill="#181818" points="818.5,1167.4258,828.5,1171.4258,818.5,1175.4258,822.5,1171.4258" style="stroke:#181818;stroke-width:1.0;"/><line style="stroke:#181818;stroke-width:1.0;" x1="519.5" x2="824.5" y1="1171.4258" y2="1171.4258"/><text fill="#000000" font-family="sans-serif" font-size="13" lengthAdjust="spacing" textLength="62" x="526.5" y="1166.6836">OK: token</text><polygon fill="#181818" points="530.5,1196.7363,520.5,1200.7363,530.5,1204.7363,526.5,1200.7363" style="stroke:#181818;stroke-width:1.0;"/><line style="stroke:#181818;stroke-width:1.0;" x1="524.5" x2="829.5" y1="1200.7363" y2="1200.7363"/><text fill="#000000" font-family="sans-serif" font-size="13" lengthAdjust="spacing" textLength="287" x="536.5" y="1195.9941">/delegation (with token and delegation mask)</text><line style="stroke:#181818;stroke-width:1.0;" x1="519.5" x2="561.5" y1="1230.0469" y2="1230.0469"/><line style="stroke:#181818;stroke-width:1.0;" x1="561.5" x2="561.5" y1="1230.0469" y2="1243.0469"/><line style="stroke:#181818;stroke-width:1.0;" x1="520.5" x2="561.5" y1="1243.0469" y2="1243.0469"/><polygon fill="#181818" points="530.5,1239.0469,520.5,1243.0469,530.5,1247.0469,526.5,1243.0469" style="stroke:#181818;stroke-width:1.0;"/><text fill="#000000" font-family="sans-serif" font-size="13" lengthAdjust="spacing" textLength="77" x="526.5" y="1225.3047">check token</text><line style="stroke:#181818;stroke-width:1.0;" x1="519.5" x2="561.5" y1="1272.3574" y2="1272.3574"/><line style="stroke:#181818;stroke-width:1.0;" x1="561.5" x2="561.5" y1="1272.3574" y2="1285.3574"/><line style="stroke:#181818;stroke-width:1.0;" x1="520.5" x2="561.5" y1="1285.3574" y2="1285.3574"/><polygon fill="#181818" points="530.5,1281.3574,520.5,1285.3574,530.5,1289.3574,526.5,1285.3574" style="stroke:#181818;stroke-width:1.0;"/><text fill="#000000" font-family="sans-serif" font-size="13" lengthAdjust="spacing" textLength="198" x="526.5" y="1267.6152">check delegation mask policies</text><polygon fill="#181818" points="818.5,1310.668,828.5,1314.668,818.5,1318.668,822.5,1314.668" style="stroke:#181818;stroke-width:1.0;"/><line style="stroke:#181818;stroke-width:1.0;" x1="519.5" x2="824.5" y1="1314.668" y2="1314.668"/><text fill="#000000" font-family="sans-serif" font-size="13" lengthAdjust="spacing" textLength="151" x="526.5" y="1309.9258">OK: delegation evidence</text><line style="stroke:#181818;stroke-width:1.0;" x1="830.5" x2="872.5" y1="1343.9785" y2="1343.9785"/><line style="stroke:#181818;stroke-width:1.0;" x1="872.5" x2="872.5" y1="1343.9785" y2="1356.9785"/><line style="stroke:#181818;stroke-width:1.0;" x1="831.5" x2="872.5" y1="1356.9785" y2="1356.9785"/><polygon fill="#181818" points="841.5,1352.9785,831.5,1356.9785,841.5,1360.9785,837.5,1356.9785" style="stroke:#181818;stroke-width:1.0;"/><text fill="#000000" font-family="sans-serif" font-size="13" lengthAdjust="spacing" textLength="166" x="837.5" y="1339.2363">check delegation evidence</text><polygon fill="#181818" points="58.5,1382.2891,48.5,1386.2891,58.5,1390.2891,54.5,1386.2891" style="stroke:#181818;stroke-width:1.0;"/><line style="stroke:#181818;stroke-width:1.0;" x1="52.5" x2="829.5" y1="1386.2891" y2="1386.2891"/><text fill="#000000" font-family="sans-serif" font-size="13" lengthAdjust="spacing" textLength="53" x="64.5" y="1381.5469">OK: data</text><!--SRC=[pLNBJiCm4BpxArQSMecAUmz85KUGa2Bn0SPPMgk97QqT2dmzpeFKIHtN5I3rb8Ttl3FhoQJYPAMG5LSMRXwqCdM9T0FSWEWVMEMNR8pHGd8hjO8CjzBOlfmV5oQ8skuqoQyn1XRwe92MBRQztKmwPMXqJG83bPLax8SUhEw7jx26Ewltg62nHGlSTKRbTknQjojBDXIFWMA7OW-Ya0xHY45gfVZLdiIaJdxz2NocNmAcfGJ6og9mXrHMXNJpcW8zPS-FwuvHJ4mp-azO7AJTTSNGw1g6t2rBzQQfR359whgkSMR7dS-Sp2aLS6o62GWSuOToN_-iQOmkSKM3uOvJk8NNsaBphDqrnmAtdH1ybpcwfcVyrFUzLXSrb5ADz3idzP_ulnWfsKduOOaB2pEHz98ziG2KBeWL6iEYeK9Nv8PDbkO32jcW5NA93Tnq_zm7ZjcS3uA74c0IpXDA-meyhtWnuUldAlSJfEHc7xNDoOYd1PFDeDA5-tkYYH4FH1YBHrW84KdQd5lElW40]--></g></svg>