<svg xmlns="http://www.w3.org/2000/svg" xmlns:xlink="http://www.w3.org/1999/xlink" contentStyleType="text/css" height="580px" preserveAspectRatio="none" style="width:846px;height:580px;background:#FFFFFF;" version="1.1" viewBox="0 0 846 580" width="846px" zoomAndPan="magnify"><defs/><g><line style="stroke:#181818;stroke-width:0.5;stroke-dasharray:5.0,5.0;" x1="47" x2="47" y1="36.4883" y2="544.8359"/><line style="stroke:#181818;stroke-width:0.5;stroke-dasharray:5.0,5.0;" x1="176" x2="176" y1="36.4883" y2="544.8359"/><line style="stroke:#181818;stroke-width:0.5;stroke-dasharray:5.0,5.0;" x1="376" x2="376" y1="36.4883" y2="544.8359"/><line style="stroke:#181818;stroke-width:0.5;stroke-dasharray:5.0,5.0;" x1="566" x2="566" y1="36.4883" y2="544.8359"/><rect fill="#E2E2F0" height="30.4883" rx="2.5" ry="2.5" style="stroke:#181818;stroke-width:0.5;" width="85" x="5" y="5"/><text fill="#000000" font-family="sans-serif" font-size="14" lengthAdjust="spacing" textLength="71" x="12" y="25.5352">Consumer</text><rect fill="#E2E2F0" height="30.4883" rx="2.5" ry="2.5" style="stroke:#181818;stroke-width:0.5;" width="85" x="5" y="543.8359"/><text fill="#000000" font-family="sans-serif" font-size="14" lengthAdjust="spacing" textLength="71" x="12" y="564.3711">Consumer</text><rect fill="#E2E2F0" height="30.4883" rx="2.5" ry="2.5" style="stroke:#181818;stroke-width:0.5;" width="153" x="100" y="5"/><text fill="#000000" font-family="sans-serif" font-size="14" lengthAdjust="spacing" textLength="139" x="107" y="25.5352">Association Register</text><rect fill="#E2E2F0" height="30.4883" rx="2.5" ry="2.5" style="stroke:#181818;stroke-width:0.5;" width="153" x="100" y="543.8359"/><text fill="#000000" font-family="sans-serif" font-size="14" lengthAdjust="spacing" textLength="139" x="107" y="564.3711">Association Register</text><rect fill="#E2E2F0" height="30.4883" rx="2.5" ry="2.5" style="stroke:#181818;stroke-width:0.5;" width="226" x="263" y="5"/><text fill="#000000" font-family="sans-serif" font-size="14" lengthAdjust="spacing" textLength="212" x="270" y="25.5352">Authorization Register (owner)</text><rect fill="#E2E2F0" height="30.4883" rx="2.5" ry="2.5" style="stroke:#181818;stroke-width:0.5;" width="226" x="263" y="543.8359"/><text fill="#000000" font-family="sans-serif" font-size="14" lengthAdjust="spacing" textLength="212" x="270" y="564.3711">Authorization Register (owner)</text><rect fill="#E2E2F0" height="30.4883" rx="2.5" ry="2.5" style="stroke:#181818;stroke-width:0.5;" width="134" x="499" y="5"/><text fill="#000000" font-family="sans-serif" font-size="14" lengthAdjust="spacing" textLength="120" x="506" y="25.5352">Resource (owner)</text><rect fill="#E2E2F0" height="30.4883" rx="2.5" ry="2.5" style="stroke:#181818;stroke-width:0.5;" width="134" x="499" y="543.8359"/><text fill="#000000" font-family="sans-serif" font-size="14" lengthAdjust="spacing" textLength="120" x="506" y="564.3711">Resource (owner)</text><polygon fill="#181818" points="554,63.7988,564,67.7988,554,71.7988,558,67.7988" style="stroke:#181818;stroke-width:1.0;"/><line style="stroke:#181818;stroke-width:1.0;" x1="47.5" x2="560" y1="67.7988" y2="67.7988"/><text fill="#000000" font-family="sans-serif" font-size="13" lengthAdjust="spacing" textLength="210" x="54.5" y="63.0566">/token (get authentication token)</text><line style="stroke:#181818;stroke-width:1.0;" x1="566" x2="608" y1="97.1094" y2="97.1094"/><line style="stroke:#181818;stroke-width:1.0;" x1="608" x2="608" y1="97.1094" y2="110.1094"/><line style="stroke:#181818;stroke-width:1.0;" x1="567" x2="608" y1="110.1094" y2="110.1094"/><polygon fill="#181818" points="577,106.1094,567,110.1094,577,114.1094,573,110.1094" style="stroke:#181818;stroke-width:1.0;"/><text fill="#000000" font-family="sans-serif" font-size="13" lengthAdjust="spacing" textLength="138" x="573" y="92.3672">check client assertion</text><polygon fill="#181818" points="187.5,135.4199,177.5,139.4199,187.5,143.4199,183.5,139.4199" style="stroke:#181818;stroke-width:1.0;"/><line style="stroke:#181818;stroke-width:1.0;" x1="181.5" x2="565" y1="139.4199" y2="139.4199"/><text fill="#000000" font-family="sans-serif" font-size="13" lengthAdjust="spacing" textLength="210" x="193.5" y="134.6777">/token (get authentication token)</text><line style="stroke:#181818;stroke-width:1.0;" x1="176.5" x2="218.5" y1="168.7305" y2="168.7305"/><line style="stroke:#181818;stroke-width:1.0;" x1="218.5" x2="218.5" y1="168.7305" y2="181.7305"/><line style="stroke:#181818;stroke-width:1.0;" x1="177.5" x2="218.5" y1="181.7305" y2="181.7305"/><polygon fill="#181818" points="187.5,177.7305,177.5,181.7305,187.5,185.7305,183.5,181.7305" style="stroke:#181818;stroke-width:1.0;"/><text fill="#000000" font-family="sans-serif" font-size="13" lengthAdjust="spacing" textLength="138" x="183.5" y="163.9883">check client assertion</text><line style="stroke:#181818;stroke-width:1.0;" x1="176.5" x2="218.5" y1="211.041" y2="211.041"/><line style="stroke:#181818;stroke-width:1.0;" x1="218.5" x2="218.5" y1="211.041" y2="224.041"/><line style="stroke:#181818;stroke-width:1.0;" x1="177.5" x2="218.5" y1="224.041" y2="224.041"/><polygon fill="#181818" points="187.5,220.041,177.5,224.041,187.5,228.041,183.5,224.041" style="stroke:#181818;stroke-width:1.0;"/><text fill="#000000" font-family="sans-serif" font-size="13" lengthAdjust="spacing" textLength="174" x="183.5" y="206.2988">check owner still compliant</text><polygon fill="#181818" points="554,249.3516,564,253.3516,554,257.3516,558,253.3516" style="stroke:#181818;stroke-width:1.0;"/><line style="stroke:#181818;stroke-width:1.0;" x1="176.5" x2="560" y1="253.3516" y2="253.3516"/><text fill="#000000" font-family="sans-serif" font-size="13" lengthAdjust="spacing" textLength="62" x="183.5" y="248.6094">OK: token</text><polygon fill="#181818" points="187.5,278.6621,177.5,282.6621,187.5,286.6621,183.5,282.6621" style="stroke:#181818;stroke-width:1.0;"/><line style="stroke:#181818;stroke-width:1.0;" x1="181.5" x2="565" y1="282.6621" y2="282.6621"/><text fill="#000000" font-family="sans-serif" font-size="13" lengthAdjust="spacing" textLength="322" x="193.5" y="277.9199">/party (with token get consumer party information)</text><line style="stroke:#181818;stroke-width:1.0;" x1="176.5" x2="218.5" y1="311.9727" y2="311.9727"/><line style="stroke:#181818;stroke-width:1.0;" x1="218.5" x2="218.5" y1="311.9727" y2="324.9727"/><line style="stroke:#181818;stroke-width:1.0;" x1="177.5" x2="218.5" y1="324.9727" y2="324.9727"/><polygon fill="#181818" points="187.5,320.9727,177.5,324.9727,187.5,328.9727,183.5,324.9727" style="stroke:#181818;stroke-width:1.0;"/><text fill="#000000" font-family="sans-serif" font-size="13" lengthAdjust="spacing" textLength="77" x="183.5" y="307.2305">check token</text><polygon fill="#181818" points="554,350.2832,564,354.2832,554,358.2832,558,354.2832" style="stroke:#181818;stroke-width:1.0;"/><line style="stroke:#181818;stroke-width:1.0;" x1="176.5" x2="560" y1="354.2832" y2="354.2832"/><text fill="#000000" font-family="sans-serif" font-size="13" lengthAdjust="spacing" textLength="87" x="183.5" y="349.541">OK: party info</text><line style="stroke:#181818;stroke-width:1.0;" x1="566" x2="608" y1="383.5938" y2="383.5938"/><line style="stroke:#181818;stroke-width:1.0;" x1="608" x2="608" y1="383.5938" y2="396.5938"/><line style="stroke:#181818;stroke-width:1.0;" x1="567" x2="608" y1="396.5938" y2="396.5938"/><polygon fill="#181818" points="577,392.5938,567,396.5938,577,400.5938,573,396.5938" style="stroke:#181818;stroke-width:1.0;"/><text fill="#000000" font-family="sans-serif" font-size="13" lengthAdjust="spacing" textLength="266" x="573" y="378.8516">check consumer party info for compliance</text><polygon fill="#181818" points="58.5,421.9043,48.5,425.9043,58.5,429.9043,54.5,425.9043" style="stroke:#181818;stroke-width:1.0;"/><line style="stroke:#181818;stroke-width:1.0;" x1="52.5" x2="565" y1="425.9043" y2="425.9043"/><text fill="#000000" font-family="sans-serif" font-size="13" lengthAdjust="spacing" textLength="62" x="64.5" y="421.1621">OK: token</text><polygon fill="#181818" points="554,451.2148,564,455.2148,554,459.2148,558,455.2148" style="stroke:#181818;stroke-width:1.0;"/><line style="stroke:#181818;stroke-width:1.0;" x1="47.5" x2="560" y1="455.2148" y2="455.2148"/><text fill="#000000" font-family="sans-serif" font-size="13" lengthAdjust="spacing" textLength="182" x="54.5" y="450.4727">/some-resource (with token)</text><line style="stroke:#181818;stroke-width:1.0;" x1="566" x2="608" y1="484.5254" y2="484.5254"/><line style="stroke:#181818;stroke-width:1.0;" x1="608" x2="608" y1="484.5254" y2="497.5254"/><line style="stroke:#181818;stroke-width:1.0;" x1="567" x2="608" y1="497.5254" y2="497.5254"/><polygon fill="#181818" points="577,493.5254,567,497.5254,577,501.5254,573,497.5254" style="stroke:#181818;stroke-width:1.0;"/><text fill="#000000" font-family="sans-serif" font-size="13" lengthAdjust="spacing" textLength="77" x="573" y="479.7832">check token</text><polygon fill="#181818" points="58.5,522.8359,48.5,526.8359,58.5,530.8359,54.5,526.8359" style="stroke:#181818;stroke-width:1.0;"/><line style="stroke:#181818;stroke-width:1.0;" x1="52.5" x2="565" y1="526.8359" y2="526.8359"/><text fill="#000000" font-family="sans-serif" font-size="13" lengthAdjust="spacing" textLength="53" x="64.5" y="522.0938">OK: data</text><!--SRC=[ZLAxZi8m4Epz5IkgK21wYfFGbHH8_85bziYAnBRiZT3Tr-FOdECaFDB5sHdFmskbOr9afMPOVHljknRT2gG7zJW8MqBstXj5aibeEE65F3_WSXXC61tNnj7Vc0ELkMbqwyYDd_k9qWczwPp29qXBGlpRWyrN_WixsBAveeRgWWmoAACEDoRfE5cB31uJLOtg2ggXmEZ3e8jHIdGHSP5IYP_HN-Wju4HBu9cQ9ZnIQniAVKs9HRBZOPSSlGlJL_yBrOsuJc3eS-MIqvZqZt5jv2nAbrJVEnjk_l0oSoiGtEG658xu6LxcVxaqthIuSNdXXXO-hCkyredkMR8KTm00]--></g></svg>